<svg xmlns="http://www.w3.org/2000/svg" width="170" height="60" viewBox="0 0 170 60"><defs><style>.a{fill:#fff;}</style></defs><path class="a" d="M0,38.4a4.75,4.75,0,0,1,1.52-.47,19.63,19.63,0,0,1,10.9,3.52,1,1,0,0,0,.65.21l-1.54-2.73c-.32-.58-.64-1.25.11-1.67s1.06.2,1.4.74a47.46,47.46,0,0,1,6.63,19c0,.39.14.77.23,1.22h5.29a35.27,35.27,0,0,1-.68-3.73c-.3-3.66-.49-7.33-.76-11a4.19,4.19,0,0,0-.44-1.8c-3.4-5.78-8.62-9.15-15.16-11.31.85,1.3,1.52,2.35,2.23,3.38.37.54.69,1.08,0,1.55s-1.14,0-1.52-.6c-1.11-1.66-2.25-3.3-3.32-5a4.29,4.29,0,0,1-.29-1.38,4.06,4.06,0,0,1,1.42-.2c6.78,1.8,12.69,5,17,10.76.07.09.15.17.33.36.26-1.55.49-3,.73-4.43.05-.31.13-.62.19-.94.11-.65.39-1.28,1.13-1,.32.13.57.89.53,1.34-.28,3.1-.78,6.19-.95,9.29a52.26,52.26,0,0,0,1.22,13.82c.16.75.47,1,1.2.94,1.32,0,2.64,0,4,0,.75,0,1-.23,1.19-1A58.69,58.69,0,0,0,34,37.78a42.64,42.64,0,0,0-3.48-12.53c-.12-.25-.26-.47-.57-1-.74,1.87-1.38,3.47-2,5.08-.1.26-.11.61-.29.77s-.77.6-1,.5a1.13,1.13,0,0,1-.53-1c1-2.51,2-5,3.19-7.47.37-.79,1.23-.69,1.66.21a46.48,46.48,0,0,1,2.84,6.58c.91,3.09,1.4,6.3,2.08,9.46.05.27.12.54.16.7,1.58-1.59,3.15-3.23,4.79-4.79.66-.63,1.51-.43,1.54.31a2.17,2.17,0,0,1-.62,1.17c-1.62,1.92-3.29,3.8-4.88,5.73a2.41,2.41,0,0,0-.57,1.41,58.74,58.74,0,0,1-1.52,15.41c1.71,0,3.29,0,4.86-.05.26,0,.63-.62.7-1a55.71,55.71,0,0,1,3.23-12.49,77.15,77.15,0,0,1,7-12.38c.37-.56.74-1.13,1.12-1.69l-.17-.3-5.34,2.38c-.71.32-1.55,1.26-2.12.08s.62-1.33,1.3-1.61c2.62-1.07,5.25-2.1,7.91-3.06.42-.15,1,.14,1.5.22a4.31,4.31,0,0,1-.35,1.38c-2.52,3.93-5.08,7.84-7.63,11.75l.27.26c.45-.27.92-.52,1.35-.81a18.93,18.93,0,0,1,10.08-3A4.75,4.75,0,0,1,60,38.4v.72c-1.58,1.62-3.23,3.19-4.74,4.87-3.78,4.19-6.74,8.79-7.15,14.64A4.66,4.66,0,0,1,47.52,60h-35a9.67,9.67,0,0,1-.65-2,20.34,20.34,0,0,0-2.27-7.37C7.14,46.17,3.62,42.6,0,39.12ZM18.18,58.22c-.54-2.59-1.15-5-1.54-7.42a11.77,11.77,0,0,0-5.37-8,18.76,18.76,0,0,0-8.09-3c5.3,5.39,9.75,10.88,10.48,18.46ZM56.58,40l-.2-.32a37.37,37.37,0,0,0-5.05,1.68C48,43,44.9,45.11,43.82,49.06c-.27,1-.55,2-.76,3-.42,2-.78,4-1.18,6.14h4.47C47.06,50.63,51.54,45.15,56.58,40Z" transform="translate(0 0)"/><path class="a" d="M14.16,0c.24.13.55.2.7.4s.54.77.44,1a1.85,1.85,0,0,1-1,.58c-.2.06-.46-.12-.69-.15a2.19,2.19,0,0,0-2.36,1.05,7,7,0,0,0,1,8.16c1,.91,1.86,1.87,2.82,2.77a2.48,2.48,0,0,0,3.34.43,3,3,0,0,0,1.39-3.4,2.83,2.83,0,0,0-2-2.17,1.26,1.26,0,0,1-1.06-1.36c0-.9-.31-1.8-.36-2.71,0-.39.3-.8.46-1.2.4.24,1.12.44,1.16.72a7.68,7.68,0,0,0,2.74,4.7C22,10,21.9,11.88,21.2,13.51a4.45,4.45,0,0,1-3.74,2.82l-.93.09A12,12,0,0,1,16,18.76a4.59,4.59,0,0,1-4,2.82,4.49,4.49,0,0,1-4.42-2.1,2.21,2.21,0,0,0-1.78-1.11C3.14,18,1,16.81,0,14.16V12.24C1.28,9,4,8.55,7.23,8.64,6.42,7.57,5.77,6.71,4.43,7a1.26,1.26,0,0,1-.82,0,5.12,5.12,0,0,1-.85-.83c.29-.28.53-.7.87-.8a6.27,6.27,0,0,1,1.64,0,6.22,6.22,0,0,1,0-1.64c.1-.34.51-.81.79-.82s.64.45.84.77a1.2,1.2,0,0,1,0,.82c-.25,1.33.57,2,1.53,2.68C9.45,1.52,9.59,1.27,12.24,0Zm.49,16.46A4.21,4.21,0,0,0,14,15.34c-.88-1-1.86-1.87-2.75-2.83a7.07,7.07,0,0,0-7.75-1.64C1.38,11.81,1,14.08,3,15.35a11.68,11.68,0,0,0,4.13,1.3c.81.15,1.29.31,1.55,1.14a3,3,0,0,0,3.26,2.05A3.23,3.23,0,0,0,14.65,16.46Z" transform="translate(0 0)"/><path class="a" d="M49.8,23.23a13.57,13.57,0,0,1-1.55,3.1c-2.07,2.28-5.36,1.82-7-.8a1.85,1.85,0,0,0-.91-.57,20.45,20.45,0,0,1-3.76-1.44,3.68,3.68,0,0,1-1.68-4.07,4.09,4.09,0,0,1,3.45-3.11A24.57,24.57,0,0,1,40.88,16a1.8,1.8,0,0,0-2-1.15,1.68,1.68,0,0,1-1-.05c-.3-.17-.68-.53-.67-.81s.39-.67.7-.79a4.38,4.38,0,0,1,1.34-.1,3.1,3.1,0,0,1,.1-1.1,5.72,5.72,0,0,1,.89-1c.3.35.81.66.87,1,.15.91-.19,2,1.11,2.54.07-.67.12-1.32.21-1.95.43-2.94,2.29-4.44,4.92-4,1.64.29,2.44,1.55,3.15,2.87A3.54,3.54,0,0,1,51,12.89a3.51,3.51,0,0,0,1.55,2.72,3.86,3.86,0,0,1,1.27,4.33,4.18,4.18,0,0,1-3.16,3.11A5.56,5.56,0,0,1,49.8,23.23ZM45.1,26a2.58,2.58,0,0,0,2.39-1.67,2,2,0,0,0-.66-2.56c-.8-.71-1.53-1.52-2.29-2.28a6.21,6.21,0,0,0-6.62-1.16,2,2,0,0,0-.57,3.56,5.22,5.22,0,0,0,3.75,1.33,1.37,1.37,0,0,1,1.51,1A2.49,2.49,0,0,0,45.1,26Zm4.23-4.64a2.67,2.67,0,0,0,2.91-2.21,2.58,2.58,0,0,0-1.7-2.84c-.88-.25-1-.75-1.11-1.56a9.57,9.57,0,0,0-.73-3A2.23,2.23,0,0,0,45.05,11c-1.28,1.36-1.27,5.27,0,6.62,1.06,1.09,2.12,2.17,3.23,3.21A4.26,4.26,0,0,0,49.33,21.38Z" transform="translate(0 0)"/><path class="a" d="M84.83,28.29a5.77,5.77,0,0,0-2.4-2.51,7.17,7.17,0,0,0-3.55-.85,7.82,7.82,0,0,0-3.94,1,6.93,6.93,0,0,0-2.7,2.82,8.79,8.79,0,0,0-1,4.22,8.9,8.9,0,0,0,1,4.24A6.89,6.89,0,0,0,74.94,40a7.82,7.82,0,0,0,3.94,1,7,7,0,0,0,4.83-1.67A7.17,7.17,0,0,0,86,34.85H77.63V31.94H89.89v2.85a11,11,0,0,1-1.84,4.76A11.18,11.18,0,0,1,84.18,43a11,11,0,0,1-5.3,1.29,11.51,11.51,0,0,1-5.73-1.45,10.8,10.8,0,0,1-4.11-4A11.4,11.4,0,0,1,67.52,33,11.43,11.43,0,0,1,69,27.1a10.83,10.83,0,0,1,4.13-4,12.13,12.13,0,0,1,12,.28,10,10,0,0,1,4,4.95Z" transform="translate(0 0)"/><path class="a" d="M93.21,31.38a7.62,7.62,0,0,1,2.83-3A7.51,7.51,0,0,1,100,27.33a7.24,7.24,0,0,1,3.41.76A6.9,6.9,0,0,1,105.71,30V27.6h3.45V44.13h-3.45V41.67a6.79,6.79,0,0,1-2.37,1.95A7.65,7.65,0,0,1,96,43.3a7.85,7.85,0,0,1-2.81-3.06,9.48,9.48,0,0,1-1-4.45A9.26,9.26,0,0,1,93.21,31.38ZM105,32.88a4.88,4.88,0,0,0-8.6-.05,5.82,5.82,0,0,0-.71,3,6.05,6.05,0,0,0,.71,3,5,5,0,0,0,1.85,2A4.82,4.82,0,0,0,105,38.83a6.05,6.05,0,0,0,.71-3A6,6,0,0,0,105,32.88Z" transform="translate(0 0)"/><path class="a" d="M117.65,30.39v9.15a1.74,1.74,0,0,0,.43,1.33,2.19,2.19,0,0,0,1.49.41h2.1v2.85H119a5.2,5.2,0,0,1-3.54-1.08,4.45,4.45,0,0,1-1.23-3.51V30.39h-2V27.6h2V23.49h3.45V27.6h4v2.79Z" transform="translate(0 0)"/><path class="a" d="M130.24,28a5.88,5.88,0,0,1,2.95-.7v3.54h-.87a4.14,4.14,0,0,0-3,1,4.83,4.83,0,0,0-1,3.54v8.7h-3.42V27.6h3.42V30A5.4,5.4,0,0,1,130.24,28Z" transform="translate(0 0)"/><path class="a" d="M151.37,37.14H138.74a4.59,4.59,0,0,0,1.47,3.18,4.64,4.64,0,0,0,3.24,1.2,4,4,0,0,0,3.9-2.31H151a7.48,7.48,0,0,1-2.71,3.73,8,8,0,0,1-4.88,1.46,8.4,8.4,0,0,1-4.24-1.07,7.6,7.6,0,0,1-3-3,9.13,9.13,0,0,1-1.06-4.48,9.39,9.39,0,0,1,1-4.49,7.27,7.27,0,0,1,2.91-3,8.68,8.68,0,0,1,4.31-1.05,8.42,8.42,0,0,1,4.17,1,7.19,7.19,0,0,1,2.85,2.86,8.65,8.65,0,0,1,1,4.25A10.69,10.69,0,0,1,151.37,37.14Zm-3.45-2.76a3.89,3.89,0,0,0-1.35-3,4.83,4.83,0,0,0-3.27-1.14,4.39,4.39,0,0,0-3,1.12,4.71,4.71,0,0,0-1.5,3.05Z" transform="translate(0 0)"/><path class="a" d="M169.88,37.14H157.25a4.59,4.59,0,0,0,1.47,3.18,4.64,4.64,0,0,0,3.24,1.2,4,4,0,0,0,3.9-2.31h3.69a7.44,7.44,0,0,1-2.72,3.73A8,8,0,0,1,162,44.4a8.46,8.46,0,0,1-4.25-1.07,7.58,7.58,0,0,1-2.94-3,9.13,9.13,0,0,1-1.06-4.48,9.39,9.39,0,0,1,1-4.49,7.27,7.27,0,0,1,2.91-3A8.68,8.68,0,0,1,162,27.33a8.42,8.42,0,0,1,4.17,1A7.19,7.19,0,0,1,169,31.21a8.65,8.65,0,0,1,1,4.25A10.69,10.69,0,0,1,169.88,37.14Zm-3.45-2.76a3.89,3.89,0,0,0-1.35-3,4.83,4.83,0,0,0-3.27-1.14,4.39,4.39,0,0,0-3,1.12,4.71,4.71,0,0,0-1.5,3.05Z" transform="translate(0 0)"/></svg>